<?xml version="1.0" encoding="UTF-8"?>
<!DOCTYPE svg PUBLIC "-//W3C//DTD SVG 1.1//EN" "http://www.w3.org/Graphics/SVG/1.1/DTD/svg11.dtd">
<svg xmlns="http://www.w3.org/2000/svg" version="1.1" width="225px" height="225px" style="shape-rendering:geometricPrecision; text-rendering:geometricPrecision; image-rendering:optimizeQuality; fill-rule:evenodd; clip-rule:evenodd" xmlns:xlink="http://www.w3.org/1999/xlink">
<g><path style="opacity:0.985" fill="#0d0d0d" d="M 97.5,-0.5 C 107.5,-0.5 117.5,-0.5 127.5,-0.5C 157.504,4.33067 181.837,18.664 200.5,42.5C 200.427,44.0269 201.094,45.0269 202.5,45.5C 214.511,61.1926 221.844,78.8593 224.5,98.5C 224.5,107.5 224.5,116.5 224.5,125.5C 213.833,180.833 180.833,213.833 125.5,224.5C 116.5,224.5 107.5,224.5 98.5,224.5C 78.8593,221.844 61.1926,214.511 45.5,202.5C 45.0269,201.094 44.0269,200.427 42.5,200.5C 18.3741,181.589 4.04073,156.922 -0.5,126.5C -0.5,116.833 -0.5,107.167 -0.5,97.5C 2.35702,78.787 9.35702,61.787 20.5,46.5C 21.9063,46.0269 22.573,45.0269 22.5,43.5C 41.5599,18.8002 66.5599,4.13349 97.5,-0.5 Z M 194.5,71.5 C 203.588,91.3492 205.921,112.016 201.5,133.5C 200.262,135.214 199.595,137.214 199.5,139.5C 197.126,144.277 195.126,149.277 193.5,154.5C 192.326,155.514 191.66,156.847 191.5,158.5C 190.094,158.973 189.427,159.973 189.5,161.5C 188.094,161.973 187.427,162.973 187.5,164.5C 185.738,165.262 184.738,166.596 184.5,168.5C 176.734,176.607 168.401,183.94 159.5,190.5C 149.171,195.676 138.504,199.676 127.5,202.5C 112.641,204.304 97.9739,203.304 83.5,199.5C 82.2196,198.069 80.5529,197.402 78.5,197.5C 77.2196,196.069 75.5529,195.402 73.5,195.5C 73.1583,194.662 72.4916,194.328 71.5,194.5C 69.6644,192.412 67.3311,191.079 64.5,190.5C 62.8525,188.674 60.8525,187.34 58.5,186.5C 58.0269,185.094 57.0269,184.427 55.5,184.5C 55.5,183.833 55.1667,183.5 54.5,183.5C 52.7607,180.757 50.4274,178.757 47.5,177.5C 47.1667,176.5 46.5,175.833 45.5,175.5C 43.9059,172.236 41.5725,169.569 38.5,167.5C 38.573,165.973 37.9063,164.973 36.5,164.5C 36.573,162.973 35.9063,161.973 34.5,161.5C 34.573,159.973 33.9063,158.973 32.5,158.5C 31.6743,155.515 30.341,152.849 28.5,150.5C 27.7365,146.863 26.4032,143.53 24.5,140.5C 18.1442,117.671 19.4775,95.3372 28.5,73.5C 29.684,71.5901 31.184,71.2568 33,72.5C 33.4342,75.9683 32.9342,79.3016 31.5,82.5C 30.7659,83.7079 30.4326,85.0413 30.5,86.5C 26.635,97.3964 25.135,108.73 26,120.5C 26.2321,121.737 26.7321,122.737 27.5,123.5C 27.8137,135.47 31.4804,146.137 38.5,155.5C 38.2639,158.226 39.0972,160.559 41,162.5C 46.0914,168.098 51.5914,173.098 57.5,177.5C 58.5846,179.587 60.2512,180.92 62.5,181.5C 63.8021,183.822 65.8021,185.155 68.5,185.5C 74.916,189.211 81.5826,192.711 88.5,196C 105.575,198.191 122.575,197.857 139.5,195C 146.167,191.333 152.833,187.667 159.5,184C 161.996,182.669 163.996,180.836 165.5,178.5C 182.856,166.809 192.856,150.475 195.5,129.5C 196.468,127.393 196.802,125.059 196.5,122.5C 197.583,119.806 198.583,116.972 199.5,114C 198.368,107.985 197.035,102.151 195.5,96.5C 195.015,90.0625 193.349,84.0625 190.5,78.5C 190.337,76.1432 190.503,73.8098 191,71.5C 192.145,70.3157 193.312,70.3157 194.5,71.5 Z"/></g>
<g><path style="opacity:0.975" fill="#e1e1e1" d="M 194.5,71.5 C 193.312,70.3157 192.145,70.3157 191,71.5C 190.503,73.8098 190.337,76.1432 190.5,78.5C 188.929,76.3649 187.596,74.0316 186.5,71.5C 183.847,66.1932 181.18,60.8599 178.5,55.5C 177.575,54.4376 176.575,54.4376 175.5,55.5C 166.748,45.9557 156.415,38.6224 144.5,33.5C 145.905,31.5474 145.239,30.5474 142.5,30.5C 137.179,29.6683 131.846,29.0016 126.5,28.5C 116.457,27.2147 106.457,27.2147 96.5,28.5C 90.5583,29.6566 84.5583,30.4899 78.5,31C 78.3809,32.1448 78.0476,33.3115 77.5,34.5C 66.3874,39.6287 56.7207,46.6287 48.5,55.5C 47.1196,56.7065 45.9529,56.3731 45,54.5C 42.4096,60.678 39.5762,66.678 36.5,72.5C 35.3411,76.1513 33.6744,79.4846 31.5,82.5C 32.9342,79.3016 33.4342,75.9683 33,72.5C 31.184,71.2568 29.684,71.5901 28.5,73.5C 42.8914,42.9668 66.8914,25.1335 100.5,20C 133.565,16.9069 161.065,27.7402 183,52.5C 187.861,58.224 191.694,64.5573 194.5,71.5 Z"/></g>
<g><path style="opacity:1" fill="#7f7f7f" d="M 126.5,28.5 C 125.263,34.9463 123.93,41.2796 122.5,47.5C 119.232,46.1778 115.565,45.5112 111.5,45.5C 107.435,45.5112 103.768,46.1778 100.5,47.5C 99.2857,41.2388 97.9524,34.9054 96.5,28.5C 106.457,27.2147 116.457,27.2147 126.5,28.5 Z"/></g>
<g><path style="opacity:1" fill="#c8c8c8" d="M 96.5,28.5 C 97.9524,34.9054 99.2857,41.2388 100.5,47.5C 102.932,59.4237 104.932,71.4237 106.5,83.5C 107.442,88.8054 107.609,94.1387 107,99.5C 106.292,100.381 105.458,101.047 104.5,101.5C 104.791,85.3064 100.458,70.6397 91.5,57.5C 90.3307,54.4887 88.664,51.822 86.5,49.5C 84.3599,45.2198 82.1932,40.8864 80,36.5C 79.2917,35.6195 78.4584,34.9528 77.5,34.5C 78.0476,33.3115 78.3809,32.1448 78.5,31C 84.5583,30.4899 90.5583,29.6566 96.5,28.5 Z"/></g>
<g><path style="opacity:1" fill="#7f7f7f" d="M 77.5,34.5 C 78.4584,34.9528 79.2917,35.6195 80,36.5C 82.1932,40.8864 84.3599,45.2198 86.5,49.5C 81.0649,52.3886 75.7315,55.5553 70.5,59C 66.5615,62.4294 63.2281,66.2628 60.5,70.5C 56.898,66.3954 53.0647,62.3954 49,58.5C 48.5172,57.552 48.3505,56.552 48.5,55.5C 56.7207,46.6287 66.3874,39.6287 77.5,34.5 Z"/></g>
<g><path style="opacity:1" fill="#7f7f7f" d="M 144.5,33.5 C 156.415,38.6224 166.748,45.9557 175.5,55.5C 171.472,59.8593 167.472,64.1927 163.5,68.5C 155.791,59.7938 146.457,53.4605 135.5,49.5C 139.007,44.4905 142.007,39.1572 144.5,33.5 Z"/></g>
<g><path style="opacity:0.184" fill="#767676" d="M 200.5,42.5 C 201.906,42.9731 202.573,43.9731 202.5,45.5C 201.094,45.0269 200.427,44.0269 200.5,42.5 Z"/></g>
<g><path style="opacity:0.173" fill="#828282" d="M 22.5,43.5 C 22.573,45.0269 21.9063,46.0269 20.5,46.5C 20.427,44.9731 21.0937,43.9731 22.5,43.5 Z"/></g>
<g><path style="opacity:1" fill="#181818" d="M 122.5,47.5 C 120.114,59.4328 118.114,71.4328 116.5,83.5C 113.167,83.5 109.833,83.5 106.5,83.5C 104.932,71.4237 102.932,59.4237 100.5,47.5C 103.768,46.1778 107.435,45.5112 111.5,45.5C 115.565,45.5112 119.232,46.1778 122.5,47.5 Z"/></g>
<g><path style="opacity:1" fill="#1a1a1a" d="M 86.5,49.5 C 88.664,51.822 90.3307,54.4887 91.5,57.5C 93.5541,66.3264 95.5541,75.1598 97.5,84C 96.3523,88.8188 93.3523,90.8188 88.5,90C 80.8052,85.1559 73.1385,80.3225 65.5,75.5C 63.5,74.1667 61.8333,72.5 60.5,70.5C 63.2281,66.2628 66.5615,62.4294 70.5,59C 75.7315,55.5553 81.0649,52.3886 86.5,49.5 Z"/></g>
<g><path style="opacity:1" fill="#1a1a1a" d="M 135.5,49.5 C 146.457,53.4605 155.791,59.7938 163.5,68.5C 161.854,71.8102 159.52,74.4768 156.5,76.5C 148.888,80.9769 141.222,85.4769 133.5,90C 132.5,90.6667 131.5,90.6667 130.5,90C 129.449,88.6152 128.116,87.6152 126.5,87C 125.919,86.1074 125.585,85.1074 125.5,84C 127.741,75.206 129.741,66.3727 131.5,57.5C 132.82,54.8599 134.153,52.1932 135.5,49.5 Z"/></g>
<g><path style="opacity:1" fill="#c9c9c9" d="M 126.5,28.5 C 131.846,29.0016 137.179,29.6683 142.5,30.5C 145.239,30.5474 145.905,31.5474 144.5,33.5C 142.007,39.1572 139.007,44.4905 135.5,49.5C 134.153,52.1932 132.82,54.8599 131.5,57.5C 122.385,70.2804 118.385,84.6137 119.5,100.5C 134.616,96.7763 146.949,88.7763 156.5,76.5C 159.52,74.4768 161.854,71.8102 163.5,68.5C 167.472,64.1927 171.472,59.8593 175.5,55.5C 176.575,54.4376 177.575,54.4376 178.5,55.5C 181.18,60.8599 183.847,66.1932 186.5,71.5C 181.132,74.5155 175.798,77.5155 170.5,80.5C 159.731,86.5993 148.731,92.266 137.5,97.5C 120.169,108.168 113.169,103.502 116.5,83.5C 118.114,71.4328 120.114,59.4328 122.5,47.5C 123.93,41.2796 125.263,34.9463 126.5,28.5 Z"/></g>
<g><path style="opacity:1" fill="#cacaca" d="M 48.5,55.5 C 48.3505,56.552 48.5172,57.552 49,58.5C 53.0647,62.3954 56.898,66.3954 60.5,70.5C 61.8333,72.5 63.5,74.1667 65.5,75.5C 75.2345,88.8737 88.2345,97.5403 104.5,101.5C 103.223,102.898 101.557,103.564 99.5,103.5C 94.6756,102.226 90.009,100.559 85.5,98.5C 74.8333,92.8333 64.1667,87.1667 53.5,81.5C 47.9994,78.2489 42.3327,75.2489 36.5,72.5C 39.5762,66.678 42.4096,60.678 45,54.5C 45.9529,56.3731 47.1196,56.7065 48.5,55.5 Z"/></g>
<g><path style="opacity:1" fill="#7e7e7e" d="M 91.5,57.5 C 100.458,70.6397 104.791,85.3064 104.5,101.5C 88.2345,97.5403 75.2345,88.8737 65.5,75.5C 73.1385,80.3225 80.8052,85.1559 88.5,90C 93.3523,90.8188 96.3523,88.8188 97.5,84C 95.5541,75.1598 93.5541,66.3264 91.5,57.5 Z"/></g>
<g><path style="opacity:1" fill="#7c7c7c" d="M 131.5,57.5 C 129.741,66.3727 127.741,75.206 125.5,84C 125.585,85.1074 125.919,86.1074 126.5,87C 128.116,87.6152 129.449,88.6152 130.5,90C 131.5,90.6667 132.5,90.6667 133.5,90C 141.222,85.4769 148.888,80.9769 156.5,76.5C 146.949,88.7763 134.616,96.7763 119.5,100.5C 118.385,84.6137 122.385,70.2804 131.5,57.5 Z"/></g>
<g><path style="opacity:0.994" fill="#828282" d="M 186.5,71.5 C 187.596,74.0316 188.929,76.3649 190.5,78.5C 193.349,84.0625 195.015,90.0625 195.5,96.5C 195.5,97.8333 195.5,99.1667 195.5,100.5C 189.383,100.515 183.383,101.182 177.5,102.5C 177.146,94.4423 174.813,87.109 170.5,80.5C 175.798,77.5155 181.132,74.5155 186.5,71.5 Z"/></g>
<g><path style="opacity:0.994" fill="#808080" d="M 36.5,72.5 C 42.3327,75.2489 47.9994,78.2489 53.5,81.5C 48.8814,87.6799 46.2147,94.6799 45.5,102.5C 40.0736,102.487 34.7403,101.82 29.5,100.5C 29.1667,99.5 28.8333,98.5 28.5,97.5C 29.5888,93.9032 30.2555,90.2366 30.5,86.5C 30.4326,85.0413 30.7659,83.7079 31.5,82.5C 33.6744,79.4846 35.3411,76.1513 36.5,72.5 Z"/></g>
<g><path style="opacity:1" fill="#191919" d="M 53.5,81.5 C 64.1667,87.1667 74.8333,92.8333 85.5,98.5C 84.9009,102.021 83.5675,105.021 81.5,107.5C 69.346,105.983 57.346,104.316 45.5,102.5C 46.2147,94.6799 48.8814,87.6799 53.5,81.5 Z"/></g>
<g><path style="opacity:1" fill="#191919" d="M 170.5,80.5 C 174.813,87.109 177.146,94.4423 177.5,102.5C 165.084,103.575 152.751,105.241 140.5,107.5C 139.901,104.037 138.901,100.704 137.5,97.5C 148.731,92.266 159.731,86.5993 170.5,80.5 Z"/></g>
<g><path style="opacity:1" fill="#666666" d="M 106.5,83.5 C 109.833,83.5 113.167,83.5 116.5,83.5C 113.169,103.502 120.169,108.168 137.5,97.5C 138.901,100.704 139.901,104.037 140.5,107.5C 135.772,108.349 131.105,109.515 126.5,111C 123.735,113.995 122.902,117.495 124,121.5C 127.174,125.198 130.341,128.865 133.5,132.5C 130.467,134.016 127.8,136.016 125.5,138.5C 122.755,133.905 119.755,129.405 116.5,125C 113.446,124.179 110.446,124.345 107.5,125.5C 104.81,129.565 102.143,133.565 99.5,137.5C 96.3189,136.651 93.6523,134.985 91.5,132.5C 94.0882,129.012 96.9215,125.679 100,122.5C 101.098,118.495 100.265,114.995 97.5,112C 92.0707,110.386 86.7374,108.886 81.5,107.5C 83.5675,105.021 84.9009,102.021 85.5,98.5C 90.009,100.559 94.6756,102.226 99.5,103.5C 101.557,103.564 103.223,102.898 104.5,101.5C 105.458,101.047 106.292,100.381 107,99.5C 107.609,94.1387 107.442,88.8054 106.5,83.5 Z"/></g>
<g><path style="opacity:1" fill="#1a1a1a" d="M 107.5,101.5 C 117.337,100.511 122.17,104.844 122,114.5C 119.747,120.926 115.247,123.426 108.5,122C 99.5092,115.571 99.1759,108.738 107.5,101.5 Z"/></g>
<g><path style="opacity:1" fill="#666666" d="M 62.5,145.5 C 69.7885,139.218 77.1219,132.885 84.5,126.5C 85.3565,123.861 85.1898,121.194 84,118.5C 80.0597,116.85 75.893,116.017 71.5,116C 63.8406,115.5 56.1739,115.334 48.5,115.5C 59.7783,111.846 71.445,110.679 83.5,112C 89.1541,112.793 94.4875,114.459 99.5,117C 90.221,130.443 77.8877,139.943 62.5,145.5 Z"/></g>
<g><path style="opacity:1" fill="#7c7c7c" d="M 173.5,114.5 C 162.458,114.559 151.458,115.226 140.5,116.5C 139.658,119.498 139.158,122.498 139,125.5C 145.999,131.4 152.833,137.4 159.5,143.5C 145.047,137.881 133.381,128.714 124.5,116C 140.664,109.2 156.997,108.7 173.5,114.5 Z"/></g>
<g><path style="opacity:1" fill="#191919" d="M 173.5,114.5 C 175.216,114.629 176.883,114.962 178.5,115.5C 177.846,126.115 175.013,136.115 170,145.5C 169.292,146.381 168.458,147.047 167.5,147.5C 164.833,146.167 162.167,144.833 159.5,143.5C 152.833,137.4 145.999,131.4 139,125.5C 139.158,122.498 139.658,119.498 140.5,116.5C 151.458,115.226 162.458,114.559 173.5,114.5 Z"/></g>
<g><path style="opacity:1" fill="#1a1a1a" d="M 48.5,115.5 C 56.1739,115.334 63.8406,115.5 71.5,116C 75.893,116.017 80.0597,116.85 84,118.5C 85.1898,121.194 85.3565,123.861 84.5,126.5C 77.1219,132.885 69.7885,139.218 62.5,145.5C 60.2487,146.695 57.9154,147.695 55.5,148.5C 49.5536,138.66 46.2203,127.994 45.5,116.5C 46.209,115.596 47.209,115.263 48.5,115.5 Z"/></g>
<g><path style="opacity:0.996" fill="#808080" d="M 178.5,115.5 C 184.448,116.821 190.448,117.821 196.5,118.5C 196.5,119.833 196.5,121.167 196.5,122.5C 196.802,125.059 196.468,127.393 195.5,129.5C 193.071,137.934 189.738,146.1 185.5,154C 179.198,152.683 173.198,150.516 167.5,147.5C 168.458,147.047 169.292,146.381 170,145.5C 175.013,136.115 177.846,126.115 178.5,115.5 Z"/></g>
<g><path style="opacity:0.997" fill="#7f7f7f" d="M 45.5,116.5 C 46.2203,127.994 49.5536,138.66 55.5,148.5C 49.9412,151.113 44.2745,153.447 38.5,155.5C 33.2835,145.268 29.6168,134.602 27.5,123.5C 27.5,122.167 27.5,120.833 27.5,119.5C 33.4449,118.245 39.4449,117.245 45.5,116.5 Z"/></g>
<g><path style="opacity:0.961" fill="#cacaca" d="M 30.5,86.5 C 30.2555,90.2366 29.5888,93.9032 28.5,97.5C 28.8333,98.5 29.1667,99.5 29.5,100.5C 34.7403,101.82 40.0736,102.487 45.5,102.5C 57.346,104.316 69.346,105.983 81.5,107.5C 86.7374,108.886 92.0707,110.386 97.5,112C 100.265,114.995 101.098,118.495 100,122.5C 96.9215,125.679 94.0882,129.012 91.5,132.5C 82.4735,141.194 73.4735,149.861 64.5,158.5C 60.0355,162.463 55.7022,166.63 51.5,171C 53.7059,173.037 55.7059,175.203 57.5,177.5C 51.5914,173.098 46.0914,168.098 41,162.5C 39.0972,160.559 38.2639,158.226 38.5,155.5C 44.2745,153.447 49.9412,151.113 55.5,148.5C 57.9154,147.695 60.2487,146.695 62.5,145.5C 77.8877,139.943 90.221,130.443 99.5,117C 94.4875,114.459 89.1541,112.793 83.5,112C 71.445,110.679 59.7783,111.846 48.5,115.5C 47.209,115.263 46.209,115.596 45.5,116.5C 39.4449,117.245 33.4449,118.245 27.5,119.5C 27.5,120.833 27.5,122.167 27.5,123.5C 26.7321,122.737 26.2321,121.737 26,120.5C 25.135,108.73 26.635,97.3964 30.5,86.5 Z"/></g>
<g><path style="opacity:0.976" fill="#cbcbcb" d="M 195.5,96.5 C 197.035,102.151 198.368,107.985 199.5,114C 198.583,116.972 197.583,119.806 196.5,122.5C 196.5,121.167 196.5,119.833 196.5,118.5C 190.448,117.821 184.448,116.821 178.5,115.5C 176.883,114.962 175.216,114.629 173.5,114.5C 156.997,108.7 140.664,109.2 124.5,116C 133.381,128.714 145.047,137.881 159.5,143.5C 162.167,144.833 164.833,146.167 167.5,147.5C 173.198,150.516 179.198,152.683 185.5,154C 189.738,146.1 193.071,137.934 195.5,129.5C 192.856,150.475 182.856,166.809 165.5,178.5C 167.811,175.853 170.144,173.186 172.5,170.5C 168.479,165.812 164.146,161.479 159.5,157.5C 150.86,149.194 142.193,140.861 133.5,132.5C 130.341,128.865 127.174,125.198 124,121.5C 122.902,117.495 123.735,113.995 126.5,111C 131.105,109.515 135.772,108.349 140.5,107.5C 152.751,105.241 165.084,103.575 177.5,102.5C 183.383,101.182 189.383,100.515 195.5,100.5C 195.5,99.1667 195.5,97.8333 195.5,96.5 Z"/></g>
<g><path style="opacity:1" fill="#1a1a1a" d="M 133.5,132.5 C 142.193,140.861 150.86,149.194 159.5,157.5C 158.797,159.716 157.464,161.549 155.5,163C 151.193,166.483 146.527,169.317 141.5,171.5C 136.439,160.378 131.106,149.378 125.5,138.5C 127.8,136.016 130.467,134.016 133.5,132.5 Z"/></g>
<g><path style="opacity:1" fill="#191919" d="M 91.5,132.5 C 93.6523,134.985 96.3189,136.651 99.5,137.5C 93.6367,148.561 88.3034,159.894 83.5,171.5C 75.818,169.154 69.4846,164.82 64.5,158.5C 73.4735,149.861 82.4735,141.194 91.5,132.5 Z"/></g>
<g><path style="opacity:0.302" fill="#a5a5a5" d="M 201.5,133.5 C 201.741,135.898 201.074,137.898 199.5,139.5C 199.595,137.214 200.262,135.214 201.5,133.5 Z"/></g>
<g><path style="opacity:0.969" fill="#cbcbcb" d="M 125.5,138.5 C 131.106,149.378 136.439,160.378 141.5,171.5C 144.094,177.024 146.927,182.358 150,187.5C 155.451,184.862 160.618,181.862 165.5,178.5C 163.996,180.836 161.996,182.669 159.5,184C 152.833,187.667 146.167,191.333 139.5,195C 122.575,197.857 105.575,198.191 88.5,196C 81.5826,192.711 74.916,189.211 68.5,185.5C 70.8398,186.086 73.0065,187.086 75,188.5C 77.8622,182.776 80.6955,177.109 83.5,171.5C 88.3034,159.894 93.6367,148.561 99.5,137.5C 102.143,133.565 104.81,129.565 107.5,125.5C 110.446,124.345 113.446,124.179 116.5,125C 119.755,129.405 122.755,133.905 125.5,138.5 Z"/></g>
<g><path style="opacity:1" fill="#666766" d="M 128.5,168.5 C 124.523,159.601 120.523,150.601 116.5,141.5C 113.628,140.217 110.795,140.217 108,141.5C 103.852,150.143 100.018,158.81 96.5,167.5C 96.932,151.524 102.265,137.524 112.5,125.5C 122.555,137.989 127.888,152.323 128.5,168.5 Z"/></g>
<g><path style="opacity:1" fill="#1a1a1a" d="M 128.5,168.5 C 129.265,171.096 129.599,173.763 129.5,176.5C 118.246,178.769 106.913,179.102 95.5,177.5C 95.3424,174.098 95.6758,170.764 96.5,167.5C 100.018,158.81 103.852,150.143 108,141.5C 110.795,140.217 113.628,140.217 116.5,141.5C 120.523,150.601 124.523,159.601 128.5,168.5 Z"/></g>
<g><path style="opacity:0.027" fill="#dedede" d="M 27.5,123.5 C 29.6168,134.602 33.2835,145.268 38.5,155.5C 31.4804,146.137 27.8137,135.47 27.5,123.5 Z"/></g>
<g><path style="opacity:0.045" fill="#d5d5d5" d="M 24.5,140.5 C 26.4032,143.53 27.7365,146.863 28.5,150.5C 26.2057,147.63 24.8723,144.297 24.5,140.5 Z"/></g>
<g><path style="opacity:0.024" fill="#d0d0d0" d="M 199.5,139.5 C 198.662,145.025 196.662,150.025 193.5,154.5C 195.126,149.277 197.126,144.277 199.5,139.5 Z"/></g>
<g><path style="opacity:0.993" fill="#818181" d="M 64.5,158.5 C 69.4846,164.82 75.818,169.154 83.5,171.5C 80.6955,177.109 77.8622,182.776 75,188.5C 73.0065,187.086 70.8398,186.086 68.5,185.5C 66.8525,183.674 64.8525,182.34 62.5,181.5C 60.2512,180.92 58.5846,179.587 57.5,177.5C 55.7059,175.203 53.7059,173.037 51.5,171C 55.7022,166.63 60.0355,162.463 64.5,158.5 Z"/></g>
<g><path style="opacity:0.995" fill="#7f7f7f" d="M 159.5,157.5 C 164.146,161.479 168.479,165.812 172.5,170.5C 170.144,173.186 167.811,175.853 165.5,178.5C 160.618,181.862 155.451,184.862 150,187.5C 146.927,182.358 144.094,177.024 141.5,171.5C 146.527,169.317 151.193,166.483 155.5,163C 157.464,161.549 158.797,159.716 159.5,157.5 Z"/></g>
<g><path style="opacity:0.137" fill="#bdbdbd" d="M 32.5,158.5 C 33.9063,158.973 34.573,159.973 34.5,161.5C 33.0937,161.027 32.427,160.027 32.5,158.5 Z"/></g>
<g><path style="opacity:0.141" fill="#9e9e9e" d="M 191.5,158.5 C 191.573,160.027 190.906,161.027 189.5,161.5C 189.427,159.973 190.094,158.973 191.5,158.5 Z"/></g>
<g><path style="opacity:0.122" fill="#c6c6c6" d="M 34.5,161.5 C 35.9063,161.973 36.573,162.973 36.5,164.5C 35.0937,164.027 34.427,163.027 34.5,161.5 Z"/></g>
<g><path style="opacity:0.133" fill="#aaaaaa" d="M 189.5,161.5 C 189.573,163.027 188.906,164.027 187.5,164.5C 187.427,162.973 188.094,161.973 189.5,161.5 Z"/></g>
<g><path style="opacity:0.18" fill="#b5b5b5" d="M 36.5,164.5 C 37.9063,164.973 38.573,165.973 38.5,167.5C 37.0937,167.027 36.427,166.027 36.5,164.5 Z"/></g>
<g><path style="opacity:0.149" fill="#a0a0a0" d="M 187.5,164.5 C 187.262,166.404 186.262,167.738 184.5,168.5C 184.738,166.596 185.738,165.262 187.5,164.5 Z"/></g>
<g><path style="opacity:0.239" fill="#b4b4b4" d="M 38.5,167.5 C 41.5725,169.569 43.9059,172.236 45.5,175.5C 42.4275,173.431 40.0941,170.764 38.5,167.5 Z"/></g>
<g><path style="opacity:0.004" fill="#d4d4d4" d="M 47.5,177.5 C 50.4274,178.757 52.7607,180.757 54.5,183.5C 51.5726,182.243 49.2393,180.243 47.5,177.5 Z"/></g>
<g><path style="opacity:0.997" fill="#7f7f7f" d="M 129.5,176.5 C 129.594,182.247 130.26,187.914 131.5,193.5C 130.975,194.192 130.308,194.692 129.5,195C 117.577,197.159 105.743,196.992 94,194.5C 93.9303,188.767 94.4303,183.1 95.5,177.5C 106.913,179.102 118.246,178.769 129.5,176.5 Z"/></g>
<g><path style="opacity:0.031" fill="#d8d8d8" d="M 55.5,184.5 C 57.0269,184.427 58.0269,185.094 58.5,186.5C 56.9731,186.573 55.9731,185.906 55.5,184.5 Z"/></g>
<g><path style="opacity:0.137" fill="#dfdfdf" d="M 62.5,181.5 C 64.8525,182.34 66.8525,183.674 68.5,185.5C 65.8021,185.155 63.8021,183.822 62.5,181.5 Z"/></g>
<g><path style="opacity:0.129" fill="#cacaca" d="M 184.5,168.5 C 178.022,177.98 169.689,185.313 159.5,190.5C 168.401,183.94 176.734,176.607 184.5,168.5 Z"/></g>
<g><path style="opacity:0.012" fill="#d9d9d9" d="M 58.5,186.5 C 60.8525,187.34 62.8525,188.674 64.5,190.5C 61.8021,190.155 59.8021,188.822 58.5,186.5 Z"/></g>
<g><path style="opacity:0.045" fill="#dadada" d="M 64.5,190.5 C 67.3311,191.079 69.6644,192.412 71.5,194.5C 68.6689,193.921 66.3356,192.588 64.5,190.5 Z"/></g>
<g><path style="opacity:0.09" fill="#cccccc" d="M 73.5,195.5 C 75.5529,195.402 77.2196,196.069 78.5,197.5C 76.4471,197.598 74.7804,196.931 73.5,195.5 Z"/></g>
<g><path style="opacity:0.141" fill="#c5c5c5" d="M 78.5,197.5 C 80.5529,197.402 82.2196,198.069 83.5,199.5C 81.4471,199.598 79.7804,198.931 78.5,197.5 Z"/></g>
<g><path style="opacity:0.082" fill="#bfbfbf" d="M 159.5,190.5 C 149.955,197.263 139.289,201.263 127.5,202.5C 138.504,199.676 149.171,195.676 159.5,190.5 Z"/></g>
<g><path style="opacity:0.224" fill="#767676" d="M 42.5,200.5 C 44.0269,200.427 45.0269,201.094 45.5,202.5C 43.9731,202.573 42.9731,201.906 42.5,200.5 Z"/></g>
<g><path style="opacity:0.151" fill="#aeaeae" d="M 83.5,199.5 C 97.9739,203.304 112.641,204.304 127.5,202.5C 126.048,203.302 124.382,203.802 122.5,204C 109,205.581 96,204.081 83.5,199.5 Z"/></g>
</svg>
